<svg width="70" height="71" viewBox="0 0 70 71" fill="none" xmlns="http://www.w3.org/2000/svg">
    <path
        d="M65.8001 53.9697H4.20164C1.88613 53.9697 0.00170898 55.8541 0.00170898 58.1697C0.00170898 62.0279 3.14041 65.1695 7.00154 65.1695H63.0002C66.8614 65.1695 70.0001 62.0279 70.0001 58.1697C69.9999 55.854 68.1156 53.9697 65.8001 53.9697Z"
        fill="#FFFFFF" />
    <path
        d="M1.47169 31.57H68.4853C68.8353 31.57 69.2161 31.3964 69.4765 31.1612C69.7314 30.9288 69.8909 30.6124 69.9217 30.2709C70.3753 25.7631 68.7821 21.3532 65.3102 17.5116C59.0943 10.6405 47.4803 6.37061 35.001 6.37061C22.5021 6.37061 10.8767 10.6489 4.66932 17.5367C1.19729 21.3868 -0.387441 25.8022 0.0801442 30.3158C0.153016 31.0268 0.754998 31.57 1.47169 31.57ZM53.6092 17.9792C54.1552 17.4332 55.0428 17.4332 55.5888 17.9792L58.3887 20.7791C58.9347 21.3279 58.9347 22.2126 58.3887 22.7587C58.1171 23.0331 57.7587 23.1702 57.4004 23.1702C57.042 23.1702 56.6835 23.0331 56.4091 22.7587L53.6092 19.9587C53.0633 19.4128 53.0633 18.528 53.6092 17.9792ZM42.4095 23.5791L45.2094 20.7792C45.7553 20.2333 46.6429 20.2333 47.189 20.7792C47.7349 21.328 47.7349 22.2127 47.189 22.7588L44.3891 25.5587C44.1174 25.8331 43.759 25.9702 43.4007 25.9702C43.0424 25.9702 42.6839 25.8331 42.4095 25.5587C41.8635 25.0126 41.8635 24.1279 42.4095 23.5791ZM34.0098 12.3794C34.5557 11.8334 35.4433 11.8334 35.9893 12.3794L38.7892 15.1793C39.3352 15.7281 39.3352 16.6128 38.7892 17.1588C38.5177 17.4332 38.1592 17.5704 37.8009 17.5704C37.4425 17.5704 37.0841 17.4332 36.8097 17.1588L34.0098 14.3589C33.4637 13.8129 33.4637 12.9281 34.0098 12.3794ZM22.81 17.9792L25.6099 15.1793C26.1558 14.6333 27.0434 14.6333 27.5895 15.1793C28.1354 15.7281 28.1354 16.6128 27.5895 17.1588L24.7896 19.9587C24.5179 20.2331 24.1596 20.3703 23.8012 20.3703C23.4429 20.3703 23.0844 20.2331 22.81 19.9587C22.2641 19.4128 22.2641 18.528 22.81 17.9792ZM11.6102 20.7792C12.1562 20.2333 13.0437 20.2333 13.5898 20.7792L16.3897 23.5791C16.9356 24.1279 16.9356 25.0126 16.3897 25.5587C16.118 25.8331 15.7597 25.9702 15.4014 25.9702C15.043 25.9702 14.6845 25.8331 14.4101 25.5587L11.6102 22.7588C11.0643 22.2127 11.0643 21.328 11.6102 20.7792Z"
        fill="#FFFFFF" />
    <path
        d="M4.20178 34.3701C3.42616 34.3701 2.80176 34.9973 2.80176 35.7701C2.80176 36.5429 3.42616 37.1702 4.20178 37.1702H26.268L42.7736 45.4215C42.9724 45.5223 43.1851 45.5699 43.4007 45.5699C43.762 45.5699 44.1203 45.4299 44.3891 45.1584L52.3802 37.1702H65.8003C66.573 37.1702 67.2003 36.543 67.2003 35.7701C67.2003 34.9974 66.5732 34.3701 65.8003 34.3701H4.20178Z"
        fill="#FFFFFF" />
    <path
        d="M5.60166 51.1698H64.4003C67.7994 51.1698 70.4957 48.1292 69.9217 44.6236C69.4681 41.8713 66.8754 39.9702 64.0866 39.9702H55.5189L45.9319 49.5572C45.0806 50.4084 43.7786 50.6212 42.7007 50.0809L22.4768 39.9704H5.91243C3.12373 39.9704 0.530955 41.8715 0.077315 44.6238C-0.496639 48.129 2.2025 51.1698 5.60166 51.1698Z"
        fill="#FFFFFF" />
</svg>